<svg width="60" height="60" viewBox="0 0 60 60" fill="none" xmlns="http://www.w3.org/2000/svg">
										<circle cx="30" cy="30" r="30" fill="white"></circle>
										<path d="M30 0C13.4312 0 0 13.4312 0 30C0 46.5688 13.4312 60 30 60C46.5688 60 60 46.5688 60 30C60 13.4312 46.5688 0 30 0ZM30 54.375C16.5588 54.375 5.625 43.44 5.625 30C5.625 16.56 16.5588 5.625 30 5.625C43.4412 5.625 54.375 16.5588 54.375 30C54.375 43.4412 43.44 54.375 30 54.375Z" fill="#F7931A"></path>
										<path d="M31.5488 30.9737H27.61V36.825H31.5488C32.3438 36.825 33.0813 36.5025 33.5988 35.9612C34.14 35.4425 34.4625 34.7062 34.4625 33.8875C34.4638 32.2862 33.15 30.9737 31.5488 30.9737Z" fill="#F7931A"></path>
										<path d="M30 8.12496C17.9375 8.12496 8.125 17.9375 8.125 30C8.125 42.0625 17.9375 51.875 30 51.875C42.0625 51.875 51.875 42.0612 51.875 30C51.875 17.9387 42.0612 8.12496 30 8.12496ZM34.4512 40.13H31.8712V44.185H29.165V40.13H27.6787V44.185H24.96V40.13H20.18V37.585H22.8175V22.335H20.18V19.79H24.96V15.8162H27.6787V19.79H29.165V15.8162H31.8712V19.79H34.2212C35.5337 19.79 36.7437 20.3312 37.6075 21.195C38.4712 22.0587 39.0125 23.2687 39.0125 24.5812C39.0125 27.15 36.985 29.2462 34.4512 29.3612C37.4225 29.3612 39.8187 31.78 39.8187 34.7512C39.8187 37.7112 37.4237 40.13 34.4512 40.13Z" fill="#F7931A"></path>
										<path d="M33.2888 27.38C33.7613 26.9075 34.0488 26.2737 34.0488 25.56C34.0488 24.1437 32.8975 22.9912 31.48 22.9912H27.61V28.14H31.48C32.1825 28.14 32.8275 27.84 33.2888 27.38Z" fill="#F7931A"></path>
									</svg>