<svg width="60" height="60" viewBox="0 0 60 60" fill="none" xmlns="http://www.w3.org/2000/svg">
										<circle cx="30" cy="30" r="30" fill="white"></circle>
										<path d="M30.5438 0.00501883C13.9681 -0.294993 0.305031 12.893 0.00501883 29.4562C-0.294993 46.0194 12.893 59.695 29.4562 59.995C46.0194 60.295 59.695 47.1069 59.995 30.5313C60.295 13.9681 47.1069 0.292531 30.5438 0.00501883ZM29.5562 54.3697C16.1182 54.1197 5.38024 42.9943 5.63025 29.5562C5.86776 16.1182 16.9932 5.38024 30.4313 5.61775C43.8818 5.86776 54.6072 16.9932 54.3697 30.4313C54.1322 43.8693 42.9943 54.6072 29.5562 54.3697Z" fill="#345D9D"></path>
										<path d="M30.3963 8.12285C18.3333 7.91034 8.34536 17.5482 8.13285 29.6112C7.90784 41.6617 17.5457 51.6496 29.6087 51.8746C41.6717 52.0871 51.6596 42.4492 51.8721 30.3988C52.0846 18.3358 42.4592 8.34786 30.3963 8.12285ZM39.4091 42.6993H19.5083L21.9459 29.2112L19.1208 29.7987V27.4986L22.3709 26.8111L24.4835 15.2106H32.4213L30.6213 25.086L33.3964 24.4985V26.7986L30.1962 27.4611L28.3462 37.6616H40.8842L39.4091 42.6993Z" fill="#345D9D"></path>
									</svg>