<svg width="60" height="60" viewBox="0 0 60 60" fill="none" xmlns="http://www.w3.org/2000/svg">
										<circle cx="30" cy="30" r="30" fill="white"></circle>
										<path d="M30.5438 0.00501883C13.9681 -0.294993 0.305031 12.893 0.00501883 29.4562C-0.294993 46.0194 12.893 59.695 29.4562 59.995C46.0194 60.295 59.695 47.1069 59.995 30.5313C60.295 13.9681 47.1069 0.292531 30.5438 0.00501883ZM29.5562 54.3697C16.1182 54.1197 5.38024 42.9943 5.63025 29.5562C5.86776 16.1182 16.9932 5.38024 30.4313 5.61775C43.8818 5.86776 54.6072 16.9932 54.3697 30.4313C54.1322 43.8693 42.9943 54.6072 29.5562 54.3697Z" fill="#627EEA"></path>
										<path d="M30.3963 8.12285C18.3333 7.91034 8.34536 17.5482 8.13285 29.6112C7.90784 41.6617 17.5457 51.6496 29.6087 51.8746C41.6717 52.0871 51.6596 42.4492 51.8721 30.3988C52.0846 18.3358 42.4592 8.34786 30.3963 8.12285ZM30.0025 14.3581L36.954 26.7599L30.61 23.2297C30.2312 23.0197 29.7725 23.0197 29.3937 23.2297L23.0497 26.7599L30.0025 14.3581ZM30.0025 45.6381L23.0497 33.2364L29.3937 36.7665C29.5825 36.8715 29.7925 36.924 30.0012 36.924C30.21 36.924 30.42 36.8715 30.6088 36.7665L36.9528 33.2364L30.0025 45.6381ZM30.0025 34.2427L22.3722 29.9975L30.0025 25.7523L37.6315 29.9975L30.0025 34.2427Z" fill="#627EEA"></path>
									</svg>